<svg xmlns="http://www.w3.org/2000/svg" viewBox="0 0 32 32" width="32" height="32">
  <rect width="32" height="32" rx="8" fill="#2563EB"/>
  <path d="M7 16a9 9 0 1 0 18 0A9 9 0 0 0 7 16zm9-7a7 7 0 0 1 6.32 4.02L18.4 15H16v-2h-2v2h-1.5l2.4-4.8A6.97 6.97 0 0 1 16 9zm-7 7c0-1.5.47-2.88 1.28-4.02L13.6 18H16v2h2v-2h1.5l-2.4 4.8A6.97 6.97 0 0 1 16 23a7 7 0 0 1-7-7z" fill="#FFFFFF" opacity="0.95"/>
  <text x="50%" y="58%" font-family="system-ui, -apple-system, sans-serif" font-size="13" font-weight="900" fill="#FFFFFF" text-anchor="middle" dominant-baseline="middle" letter-spacing="-0.5px">G3</text>
</svg>
